<svg xmlns="http://www.w3.org/2000/svg" width="771" height="150" viewBox="0 0 771 150" version="1.1"><path d="M 114 36.278 C 106.078 39.164, 103 40.770, 103 42.016 C 103 42.536, 104.013 43.178, 105.250 43.442 C 106.487 43.706, 108.400 44.112, 109.500 44.345 C 110.600 44.578, 108.350 44.838, 104.500 44.923 L 97.500 45.078 94.413 49.289 C 87.783 58.336, 87.656 60.338, 93.646 61.461 C 96.995 62.090, 97.731 61.852, 99.773 59.478 L 102.093 56.780 101.441 59.381 C 100.663 62.478, 101.186 62.721, 109.765 63.246 L 116.030 63.630 118.515 55.763 C 119.882 51.437, 121 47.470, 121 46.948 C 121 46.427, 119.313 45.929, 117.250 45.843 C 113.899 45.702, 114.032 45.622, 118.500 45.082 C 121.250 44.750, 124.400 44.683, 125.500 44.933 C 127.279 45.337, 127.224 45.453, 125 45.985 C 121.672 46.780, 120.204 52.674, 119.366 68.598 L 118.730 80.696 121.115 81.334 C 122.427 81.685, 124.513 81.979, 125.750 81.986 C 127.770 81.999, 127.999 81.515, 127.994 77.250 C 127.991 74.638, 127.520 70.813, 126.947 68.750 C 126.085 65.646, 125.441 64.982, 123.203 64.893 C 121.124 64.811, 121.466 64.569, 124.684 63.847 C 127.314 63.257, 130.099 63.263, 132.184 63.864 C 134.008 64.390, 134.685 64.860, 133.689 64.910 C 132.110 64.988, 131.961 65.610, 132.530 69.750 C 133.519 76.944, 134.967 82, 136.039 82 C 137.305 82, 137.253 80.649, 135.869 77.611 C 135.246 76.245, 135.033 74.356, 135.395 73.414 C 135.998 71.841, 136.235 71.868, 138.276 73.745 C 141.624 76.824, 147.260 79.992, 149.395 79.996 C 151.127 80, 151.239 79.418, 150.698 73.250 C 150.372 69.537, 149.844 64.925, 149.526 63 C 149.018 59.931, 149.076 59.796, 149.999 61.905 C 150.577 63.228, 151.658 68.104, 152.400 72.740 C 153.633 80.438, 154.055 81.421, 157.259 84.062 C 159.190 85.653, 161.675 88.787, 162.783 91.026 L 164.797 95.098 166.649 90.299 C 167.987 86.831, 168.498 82.865, 168.493 76 C 168.486 67.402, 168.182 65.859, 165.291 59.741 C 160.913 50.479, 153.436 42.819, 144.421 38.363 C 138.326 35.351, 135.882 34.722, 128.846 34.350 C 121.843 33.981, 119.454 34.291, 114 36.278 M 85.635 67.077 C 84.016 75.170, 85.510 78, 91.399 78 C 94.548 78, 95.766 75.821, 96.179 69.448 L 96.500 64.500 91.385 64.202 C 86.355 63.910, 86.258 63.958, 85.635 67.077 M 99.607 66.582 C 98.435 69.636, 98.930 79.997, 100.250 80.051 C 100.938 80.080, 104.537 80.440, 108.250 80.853 L 115 81.604 115 74.502 C 115 70.312, 114.508 66.908, 113.800 66.200 C 111.916 64.316, 100.357 64.627, 99.607 66.582 M 85.547 84.214 C 87.680 93.924, 90.218 96.953, 96.250 96.985 C 99.483 97.003, 99.510 96.803, 97.309 88.888 C 95.495 82.364, 93.860 81, 87.855 81 C 84.982 81, 84.874 81.150, 85.547 84.214 M 99 85.057 C 99 88.466, 101.140 95.871, 102.435 96.946 C 103.103 97.500, 106.949 98.260, 110.982 98.635 L 118.315 99.316 117.680 94.679 C 117.330 92.128, 116.382 88.457, 115.573 86.520 L 114.102 83 106.551 83 C 99.597 83, 99 83.163, 99 85.057 M 120.100 83.917 C 118.421 84.980, 119.142 95.261, 121.057 97.569 C 121.901 98.586, 124.742 99.039, 130.872 99.136 L 139.500 99.272 132.235 100.035 C 122.402 101.067, 121.661 101.423, 122.372 104.759 C 122.931 107.386, 122.888 107.368, 121.338 104.337 C 119.826 101.382, 119.269 101.130, 112.837 100.484 C 108.167 100.015, 105.509 100.163, 104.567 100.945 C 103.615 101.735, 102.974 101.767, 102.530 101.049 C 101.491 99.367, 93 99.717, 93 101.442 C 93 103.258, 103.174 111.143, 110.186 114.759 C 115.074 117.280, 116.423 117.500, 127 117.500 C 137.581 117.500, 138.957 117.275, 144.225 114.689 C 150.573 111.573, 154 107.953, 154 104.365 C 154 101.761, 154.961 101.361, 156.800 103.200 C 157.460 103.860, 157.997 103.972, 157.993 103.450 C 157.989 102.927, 156.376 101.403, 154.408 100.063 C 151.675 98.201, 150.436 97.871, 149.165 98.664 C 148.234 99.245, 146.619 99.359, 145.500 98.922 C 143.629 98.191, 143.649 98.136, 145.809 98.070 C 149.161 97.968, 147.760 96.556, 142.283 94.515 C 136.358 92.307, 131.211 88.556, 129.771 85.397 C 128.911 83.510, 127.915 83.003, 125.089 83.015 C 123.115 83.024, 120.870 83.430, 120.100 83.917 M 136 83.965 C 136 85.332, 139.448 87.006, 142.184 86.967 L 144.500 86.933 142.139 84.967 C 139.668 82.908, 136 82.309, 136 83.965" stroke="none" fill="#9c9c9c" fill-rule="evenodd"/><path d="M 248 74.500 L 248 142 250.500 142 L 253 142 252.991 79.750 C 252.987 45.513, 252.699 15.138, 252.352 12.250 C 251.844 8.024, 251.359 7, 249.861 7 C 248.065 7, 248 9.351, 248 74.500 M 25.264 26.748 C 13.164 31.753, 7.529 39.179, 7.619 50 C 7.718 61.898, 14.056 70.290, 30.647 80.495 C 46.625 90.321, 50.990 95.186, 50.996 103.173 C 51.005 114.046, 38.799 120.016, 25.879 115.457 C 19.682 113.271, 15.219 108.562, 13.394 102.283 C 11.676 96.373, 10.765 95.373, 9.019 97.478 C 8.195 98.470, 7.920 102.154, 8.155 109.056 C 8.468 118.253, 8.715 119.353, 10.845 121.077 C 14.809 124.284, 20.646 125.208, 34.453 124.814 C 49.914 124.373, 52.852 123.225, 60.809 114.519 C 66.647 108.131, 67.478 105.351, 66.783 94.525 C 65.970 81.857, 60.661 75.509, 40.318 62.887 C 27.366 54.851, 23 50.318, 23 44.907 C 23 40.754, 25.731 36.707, 30.039 34.480 C 33.680 32.597, 44.249 32.556, 47.800 34.411 C 51.406 36.295, 55.604 40.916, 56.510 44 C 57.366 46.912, 58.875 49, 60.122 49 C 60.605 49, 61 44.291, 61 38.535 C 61 25.392, 61.411 25.694, 43 25.291 C 31.935 25.049, 28.736 25.311, 25.264 26.748 M 108.500 26.034 C 95.560 28.670, 80.053 40.043, 74.526 50.948 C 69.992 59.896, 68.715 66.428, 69.251 77.923 C 69.894 91.701, 72.353 98.167, 80.094 106.439 C 86.791 113.595, 95.804 119.213, 105.500 122.274 C 111.666 124.221, 114.704 124.486, 131 124.492 C 148.211 124.499, 149.988 124.326, 156.500 122 L 163.500 119.500 163.500 114.748 C 163.500 111.613, 163.925 109.997, 164.750 109.998 C 166.321 110, 166.394 103.938, 164.908 97.006 C 163.079 88.480, 155.922 81.160, 147.827 79.537 C 146.357 79.242, 143.111 77.441, 140.614 75.535 C 137.937 73.492, 135.816 72.489, 135.443 73.092 C 134.172 75.149, 136.251 79.539, 140.241 83.223 C 144.123 86.806, 144.206 87, 141.858 87 C 140.496 87, 138.659 86.438, 137.776 85.750 C 136.003 84.370, 133.003 76.193, 132.994 72.715 C 132.991 71.497, 132.520 68.813, 131.947 66.750 C 131.089 63.660, 130.454 63, 128.336 63 C 126.052 63, 125.834 63.306, 126.375 65.750 C 126.710 67.263, 127.416 71.978, 127.946 76.230 C 128.475 80.481, 129.385 84.850, 129.967 85.939 C 131.438 88.687, 136.653 92.371, 142 94.438 C 144.475 95.395, 146.950 96.526, 147.500 96.951 C 148.050 97.376, 149.625 98.015, 151 98.370 C 153.701 99.068, 156.352 101.151, 159.484 105.038 C 161.071 107.007, 160.823 106.914, 158.245 104.573 C 156.472 102.963, 154.868 101.838, 154.680 102.073 C 154.493 102.308, 153.792 105.035, 153.124 108.134 C 151.911 113.757, 151.896 113.774, 145.704 116.578 C 134.560 121.627, 118.879 121.485, 107.726 116.236 C 98.498 111.892, 91.746 105.288, 87.266 96.223 C 83.515 88.634, 83.500 88.553, 83.500 76.031 C 83.500 63.885, 83.610 63.235, 86.727 56.903 C 90.897 48.432, 99.628 40.018, 108.712 35.715 C 115.131 32.675, 116.125 32.500, 127 32.500 C 137.785 32.500, 138.904 32.692, 145 35.591 C 148.575 37.291, 153.971 40.798, 156.990 43.384 L 162.480 48.085 163.286 44.976 C 163.729 43.265, 163.959 39.088, 163.796 35.692 C 163.534 30.231, 163.211 29.382, 161 28.334 C 155.072 25.526, 118.795 23.937, 108.500 26.034 M 187.205 26.837 C 173.230 31.815, 166.525 43.974, 170.401 57.309 C 172.657 65.067, 180.050 72.817, 192.526 80.500 C 209.717 91.087, 213.727 95.862, 212.744 104.579 C 211.580 114.905, 200.380 119.734, 187.652 115.397 C 181.283 113.227, 177.439 109.110, 175.341 102.212 C 173.213 95.215, 173.378 95.441, 171.524 96.980 C 170.348 97.956, 170 100.487, 170 108.067 C 170 116.825, 170.244 118.166, 172.250 120.454 C 175.297 123.928, 183.407 125.299, 198 124.807 C 211.608 124.348, 215.211 122.896, 222.296 115.015 C 227.992 108.680, 229.314 104.765, 228.827 95.667 C 228.110 82.272, 222.043 74.721, 202.581 63 C 189.031 54.840, 185 50.640, 185 44.684 C 185 41.271, 185.572 39.841, 187.750 37.809 C 191.970 33.873, 194.767 32.793, 200.882 32.737 C 209.670 32.657, 215.232 36.452, 218.545 44.792 C 221.215 51.510, 222.465 49.572, 222.784 38.222 C 223.142 25.514, 223.412 25.717, 205.500 25.273 C 194.730 25.006, 191.592 25.274, 187.205 26.837 M 281.388 26.980 C 278.009 28.346, 275 32.929, 275 36.712 C 275 41.494, 278.840 45.008, 287.806 48.429 C 294.543 51, 295.088 51.423, 294.806 53.859 C 294.535 56.201, 294.011 56.535, 290.185 56.811 C 287.188 57.026, 284.804 56.492, 282.378 55.061 C 280.457 53.927, 278.252 53, 277.478 53 C 275.674 53, 273.834 56.403, 274.583 58.355 C 275.549 60.873, 283.556 64, 289.039 64 C 297.626 64, 303 59.627, 303 52.640 C 303 48.040, 299.954 45.243, 290.829 41.466 C 284.525 38.857, 283.500 38.088, 283.500 35.966 C 283.500 33.785, 283.985 33.465, 287.694 33.195 C 290.191 33.014, 293.177 33.557, 295.073 34.538 C 298.106 36.106, 298.356 36.089, 300.268 34.176 C 302.828 31.616, 302.088 29.744, 297.691 27.658 C 293.991 25.902, 284.983 25.528, 281.388 26.980 M 307.597 33.750 C 308.697 53.014, 308.977 55.316, 310.504 57.647 C 313.117 61.635, 317.948 63.992, 323.516 63.996 C 329.971 64.001, 334.877 61.378, 337.734 56.396 C 339.734 52.907, 339.969 51.115, 339.984 39.250 L 340 26 336.500 26 L 333 26 333 32.349 C 333 35.841, 332.706 42.176, 332.347 46.427 C 331.781 53.124, 331.370 54.367, 329.268 55.744 C 325.521 58.199, 321.377 57.735, 317.979 54.480 L 315 51.626 315 38.813 L 315 26 311.077 26 L 307.154 26 307.597 33.750 M 352.388 26.980 C 349.069 28.321, 346 32.932, 346 36.579 C 346 41.360, 349.364 44.590, 357.970 48.072 C 366.128 51.373, 367.352 52.474, 365.895 55.196 C 364.534 57.739, 357.825 57.552, 352.352 54.819 C 348.052 52.672, 347.963 52.668, 346.524 54.569 C 344.577 57.143, 344.631 57.578, 347.196 59.968 C 351.487 63.966, 362.577 65.304, 368.033 62.483 C 371.441 60.721, 374 56.326, 374 52.237 C 374 48.248, 369.905 44.661, 361.491 41.277 C 355.468 38.855, 354.500 38.122, 354.500 35.983 C 354.500 33.782, 354.977 33.465, 358.694 33.195 C 361.217 33.012, 364.181 33.559, 366.134 34.569 C 369.289 36.201, 369.433 36.184, 371.223 33.973 C 373.562 31.085, 373.204 30.115, 368.962 27.840 C 365.325 25.890, 356.252 25.419, 352.388 26.980 M 377 29 L 377 32 383 32 L 389 32 389 48 L 389 64 392.500 64 L 396 64 396 48 L 396 32 401.500 32 C 406.944 32, 407 31.970, 407 29 L 407 26 392 26 L 377 26 377 29 M 425.251 27.250 C 423.550 29.391, 410 60.550, 410 62.321 C 410 63.499, 410.848 64, 412.841 64 C 415.221 64, 416.124 63.188, 418.403 59 L 421.125 54 428.812 54.003 L 436.500 54.006 439 58.753 C 441.103 62.746, 442.016 63.550, 444.750 63.813 C 446.597 63.991, 448 63.662, 448 63.051 C 448 61.552, 435.439 33.222, 433.014 29.250 C 430.921 25.823, 427.157 24.853, 425.251 27.250 M 453 45 L 453 64 456.500 64 L 460 64 460 45 L 460 26 456.500 26 L 453 26 453 45 M 468 45 L 468 64 470.861 64 C 473.565 64, 473.756 63.713, 474.352 58.750 C 474.699 55.862, 474.987 50.191, 474.991 46.148 L 475 38.796 480.697 46.148 C 491.847 60.540, 495.128 64, 497.621 64 L 500 64 500 45 L 500 26 496.532 26 L 493.063 26 492.782 37.679 L 492.500 49.358 484.587 39.516 C 474.445 26.901, 473.506 26, 470.500 26 L 468 26 468 45 M 519.050 29.901 C 515.090 37.664, 505 61.097, 505 62.531 C 505 63.503, 506.036 64, 508.064 64 C 510.779 64, 511.376 63.434, 513.314 59.024 L 515.500 54.047 523.500 54.026 L 531.500 54.006 534 58.753 C 536.135 62.807, 536.993 63.547, 539.877 63.823 C 543.077 64.129, 543.219 64.008, 542.591 61.507 C 541.763 58.209, 529.767 31.820, 527.574 28.473 C 525.027 24.585, 521.457 25.183, 519.050 29.901 M 548 45 L 548 64 557.250 63.994 C 568.269 63.988, 572.818 62.887, 576.052 59.445 C 579.144 56.154, 579.259 50.577, 576.321 46.450 C 574.420 43.781, 574.337 43.183, 575.558 40.977 C 578.565 35.545, 576.427 29.912, 570.401 27.394 C 568.339 26.533, 563.422 26, 557.532 26 L 548 26 548 45 M 584.667 26.667 C 584.300 27.033, 584 35.583, 584 45.667 L 584 64 597.500 64 L 611 64 611 60.500 L 611 57 601 57 L 591 57 591 41.500 L 591 26 588.167 26 C 586.608 26, 585.033 26.300, 584.667 26.667 M 616 45 L 616 64 630 64 L 644 64 644 60.500 L 644 57 633.500 57 L 623 57 623 53.085 L 623 49.171 630.750 48.526 C 635.013 48.172, 639.175 47.792, 640 47.682 C 640.825 47.573, 641.642 46.249, 641.816 44.741 L 642.133 42 632.566 42 L 623 42 623 37 L 623 32 633.500 32 L 644 32 644 29 L 644 26 630 26 L 616 26 616 45 M 554.335 34.117 C 554.686 35.428, 554.979 37.513, 554.986 38.750 C 554.998 40.744, 555.483 40.989, 559.250 40.900 C 565.854 40.745, 568.458 39.711, 568.835 37.094 C 569.310 33.796, 568.368 33.265, 560.599 32.455 L 553.697 31.735 554.335 34.117 M 426.458 40.555 C 425.381 43.270, 424.350 45.830, 424.167 46.245 C 423.983 46.660, 425.896 47, 428.417 47 C 430.938 47, 432.972 46.663, 432.939 46.250 C 432.905 45.837, 431.874 43.277, 430.647 40.560 L 428.417 35.620 426.458 40.555 M 521.499 41.250 C 520.554 43.587, 519.557 46.063, 519.283 46.750 C 518.934 47.629, 520.015 48, 522.924 48 C 525.553 48, 527.259 47.488, 527.601 46.597 C 528.072 45.370, 524.572 37, 523.588 37 C 523.384 37, 522.444 38.913, 521.499 41.250 M 554 52.362 C 554 56.757, 554.144 57, 556.750 56.991 C 563.811 56.969, 570.121 55.642, 571.003 53.994 C 572.740 50.748, 570.071 49.136, 561.750 48.405 L 554 47.724 554 52.362 M 287.594 85.986 C 283.823 87.186, 278.135 92.630, 276.381 96.718 C 274.738 100.545, 274.576 108.746, 276.064 112.685 C 277.367 116.134, 281.575 120.695, 285.200 122.589 C 289.241 124.700, 298.296 124.358, 304.065 121.877 L 309 119.754 309 110.877 L 309 102 300.437 102 L 291.873 102 292.187 105.250 C 292.476 108.256, 292.799 108.524, 296.487 108.825 C 302.909 109.347, 304.490 111.510, 301 115 C 297.973 118.027, 290.072 117.773, 286.212 114.525 C 281.135 110.253, 281.294 99.744, 286.503 95.250 C 289.730 92.466, 296.849 92.207, 301.100 94.718 C 303.894 96.369, 304.088 96.356, 306.043 94.401 C 307.238 93.206, 307.824 91.704, 307.462 90.761 C 306.011 86.980, 293.737 84.030, 287.594 85.986 M 358.655 86.459 C 344.323 91.569, 341.436 111.366, 353.663 120.692 C 356.957 123.204, 358.151 123.500, 365 123.500 C 371.849 123.500, 373.043 123.204, 376.337 120.692 C 388.933 111.084, 385.249 90.218, 370.219 86.044 C 365.417 84.710, 363.351 84.784, 358.655 86.459 M 633.163 85.663 C 629.092 86.532, 621.325 94.980, 619.983 100 C 617.676 108.631, 621.955 118.853, 629.345 122.359 C 633.553 124.356, 642.865 124.501, 647.322 122.639 C 653.211 120.178, 654 118.677, 654 109.929 L 654 102 645.500 102 L 637 102 637 105.500 L 637 109 642 109 C 646.627 109, 647 109.181, 647 111.429 C 647 112.764, 646.293 114.564, 645.429 115.429 C 643.362 117.496, 635.162 117.502, 632.217 115.439 C 626.873 111.697, 625.298 102.434, 629.168 97.514 C 633.434 92.090, 639.707 91.094, 646.184 94.813 C 648.401 96.085, 649.142 96.127, 650.434 95.054 C 653.246 92.721, 652.341 89.533, 648.323 87.617 C 644.451 85.771, 637.100 84.823, 633.163 85.663 M 316 105 L 316 124 329 124 L 342 124 342 120.500 L 342 117 332.500 117 L 323 117 323 101.500 L 323 86 319.500 86 L 316 86 316 105 M 390.667 86.667 C 390.300 87.033, 390 95.583, 390 105.667 L 390 124 399.750 123.994 C 411.403 123.988, 416.209 122.820, 418.955 119.331 C 421.691 115.852, 421.637 110.079, 418.834 106.516 C 417.064 104.266, 416.881 103.420, 417.834 101.895 C 420.169 98.156, 419.257 93.057, 415.600 89.400 L 412.200 86 401.767 86 C 396.028 86, 391.033 86.300, 390.667 86.667 M 439.426 88.473 C 437.233 91.820, 425.237 118.209, 424.409 121.507 C 423.781 124.008, 423.923 124.129, 427.123 123.823 C 429.997 123.548, 430.794 122.866, 432.474 119.250 L 434.448 115 443 115 L 451.552 115 453.526 119.250 C 455.182 122.815, 456.024 123.551, 458.750 123.813 C 461.175 124.047, 462 123.727, 462 122.550 C 462 120.462, 449.380 92.342, 446.845 88.783 C 444.394 85.340, 441.557 85.221, 439.426 88.473 M 467 105 L 467 124 480 124 L 493 124 493 120.500 L 493 117 483.500 117 L 474 117 474 101.500 L 474 86 470.500 86 L 467 86 467 105 M 516.707 88.016 C 511.438 92.160, 511.138 100.520, 516.123 104.243 C 517.507 105.276, 521.533 107.169, 525.070 108.450 C 530.936 110.574, 531.500 111.029, 531.500 113.639 C 531.500 116.297, 531.194 116.522, 527.185 116.811 C 524.188 117.026, 521.804 116.492, 519.378 115.061 C 517.457 113.927, 515.252 113, 514.478 113 C 512.720 113, 510.826 116.384, 511.541 118.247 C 512.496 120.734, 520.746 124, 526.076 124 C 534.815 124, 540 119.792, 540 112.701 C 540 107.362, 536.159 103.709, 528.196 101.475 C 521.608 99.627, 519.636 98.127, 520.167 95.370 C 520.659 92.817, 525.089 92.029, 529.599 93.693 C 536.561 96.261, 536.560 96.261, 537.822 93.492 C 539.288 90.274, 538.967 89.687, 534.615 87.622 C 529.613 85.248, 519.956 85.460, 516.707 88.016 M 544.616 94.250 C 545.656 114.325, 545.723 114.802, 547.958 117.941 C 550.982 122.188, 554.946 124.001, 561.200 123.996 C 567.461 123.992, 572.068 121.576, 575.005 116.759 C 576.733 113.925, 576.993 111.706, 576.996 99.750 L 577 86 573.650 86 L 570.299 86 569.600 99.250 C 568.760 115.171, 567.940 117.016, 561.727 116.967 C 555.153 116.915, 553 114.515, 553 107.241 C 553 103.974, 552.709 97.859, 552.353 93.651 L 551.707 86 547.948 86 L 544.189 86 544.616 94.250 M 584.667 86.667 C 584.300 87.033, 584 95.583, 584 105.667 L 584 124 587.500 124 L 591 124 591 117 C 591 110.995, 591.249 110.002, 592.750 110.014 C 596.968 110.047, 599.310 111.627, 604.017 117.617 C 608.467 123.279, 609.427 124, 612.517 124 C 614.642 124, 615.996 123.513, 615.989 122.750 C 615.984 122.063, 613.996 118.859, 611.573 115.631 L 607.166 109.762 611.083 106.036 C 614.145 103.123, 614.999 101.567, 614.996 98.905 C 614.991 94.264, 611.670 89.178, 607.510 87.440 C 603.988 85.968, 585.975 85.358, 584.667 86.667 M 661 105 L 661 124 675 124 L 689 124 689 120.500 L 689 117 678 117 L 667 117 667 112.500 L 667 108 676.500 108 L 686 108 686 105 L 686 102 676.500 102 L 667 102 667 97 L 667 92 678 92 L 689 92 689 89 L 689 86 675 86 L 661 86 661 105 M 695 104.914 L 695 124 698 124 L 701 124 701 117 C 701 110.378, 701.121 110.005, 703.250 110.100 C 707.918 110.306, 710.029 111.656, 713.971 116.950 C 718.824 123.467, 719.523 123.965, 723.857 123.985 C 727.926 124.003, 727.748 123.230, 721.912 115.500 L 717.763 110.005 721.382 105.999 C 726.366 100.482, 726.428 95.530, 721.579 90.235 L 718.158 86.500 706.579 86.164 L 695 85.828 695 104.914 M 727 86.508 C 727 86.788, 729.982 91.496, 733.627 96.971 C 740.327 107.032, 741.869 111.252, 741.956 119.750 C 741.999 123.932, 742.056 124, 745.500 124 L 749 124 749 116.713 L 749 109.427 756.500 98.533 C 760.625 92.542, 764 87.244, 764 86.760 C 764 86.275, 762.319 86.019, 760.265 86.190 C 756.958 86.464, 755.955 87.267, 751.515 93.195 C 748.757 96.877, 746.201 100.177, 745.835 100.526 C 745.470 100.876, 742.869 97.751, 740.055 93.581 C 735.123 86.272, 734.797 86, 730.970 86 C 728.786 86, 727 86.229, 727 86.508 M 397 97 L 397 102.144 402.750 101.447 C 409.768 100.596, 412 99.523, 412 97 C 412 94.477, 409.768 93.404, 402.750 92.553 L 397 91.856 397 97 M 357.659 95.054 C 353.189 98.570, 352.430 104.680, 355.517 112.287 C 356.485 114.672, 361.170 117, 365 117 C 368.830 117, 373.515 114.672, 374.483 112.287 C 377.570 104.680, 376.811 98.570, 372.341 95.054 C 368.773 92.247, 361.227 92.247, 357.659 95.054 M 591 98.477 L 591 104.230 596.750 103.556 C 604.488 102.648, 605.832 102.182, 606.997 100.005 C 608.163 97.827, 607.445 95.385, 605.410 94.604 C 604.621 94.301, 601.056 93.754, 597.487 93.388 L 591 92.724 591 98.477 M 701.664 95.119 C 701.314 96.429, 701.021 99.028, 701.014 100.895 L 701 104.289 707.750 103.669 C 712.950 103.192, 714.902 102.559, 716.250 100.914 C 718.335 98.370, 718.379 97.900, 716.750 95.676 C 715.891 94.503, 713.435 93.777, 708.901 93.354 C 702.561 92.763, 702.276 92.833, 701.664 95.119 M 440.499 101.250 C 439.554 103.588, 438.557 106.063, 438.283 106.750 C 437.924 107.654, 439.230 108, 443 108 C 446.770 108, 448.076 107.654, 447.717 106.750 C 444.628 98.986, 443.667 97, 443 97 C 442.569 97, 441.444 98.912, 440.499 101.250 M 397 112.507 L 397 117.014 404.250 116.384 C 412.242 115.690, 415.155 114.055, 413.388 111.254 C 412.032 109.104, 408.933 108.227, 402.250 108.100 L 397 108 397 112.507" stroke="none" fill="#e3e3e3" fill-rule="evenodd"/></svg>